{"glyphs":{"0":{"ha":893,"x_min":0,"x_max":0,"o":"m 56 486 b 447 989 56 794 215 989 b 838 486 685 989 838 794 b 447 -17 838 178 685 -17 b 56 486 215 -17 56 178 m 249 486 b 447 157 249 290 328 157 b 644 486 567 157 644 290 b 447 815 644 682 567 815 b 249 486 328 815 249 682 "},"1":{"ha":682,"x_min":0,"x_max":0,"o":"m 99 899 l 525 989 l 525 0 l 332 0 l 332 779 l 99 718 "},"2":{"ha":874,"x_min":0,"x_max":0,"o":"m 469 461 b 588 678 543 540 588 600 b 438 817 588 747 535 817 b 274 621 336 817 274 738 l 78 621 b 442 990 78 828 204 990 b 793 690 674 990 793 828 b 656 421 793 588 738 494 l 404 183 l 810 183 l 810 0 l 28 0 "},"3":{"ha":829,"x_min":0,"x_max":0,"o":"m 426 -19 b 71 293 206 -19 71 126 l 269 293 b 432 146 269 199 342 146 b 585 283 522 146 585 193 b 372 433 585 376 510 433 l 372 569 b 557 711 485 569 557 635 b 436 826 557 779 517 826 b 297 700 358 826 297 772 l 113 700 b 435 989 113 867 242 989 b 756 724 638 989 756 869 b 586 510 756 624 690 550 b 783 263 707 471 783 392 b 426 -19 783 94 644 -19 "},"4":{"ha":921,"x_min":0,"x_max":0,"o":"m 579 972 l 714 972 l 714 350 l 867 350 l 867 179 l 714 179 l 714 0 l 510 0 l 510 179 l 22 179 m 528 329 l 528 656 l 297 329 "},"5":{"ha":861,"x_min":0,"x_max":0,"o":"m 806 314 b 429 -17 806 88 617 -17 b 54 133 250 -17 136 53 l 147 289 b 393 167 214 218 310 167 b 590 332 517 167 590 225 b 393 493 590 439 497 493 b 128 424 313 493 226 479 l 261 972 l 792 972 l 792 799 l 408 799 l 350 600 b 513 635 400 625 456 635 b 806 314 671 635 806 513 "},"6":{"ha":889,"x_min":0,"x_max":0,"o":"m 714 969 l 429 635 b 524 650 456 646 486 650 b 821 335 674 650 821 526 b 444 -19 821 108 653 -19 b 69 335 236 -19 69 108 b 167 583 69 432 111 514 l 461 969 m 265 335 b 444 151 265 225 342 151 b 625 335 547 151 625 225 b 444 519 625 444 547 519 b 265 335 342 519 265 444 "},"7":{"ha":804,"x_min":0,"x_max":0,"o":"m 42 972 l 800 972 l 332 0 l 118 0 l 507 786 l 42 786 "},"8":{"ha":836,"x_min":0,"x_max":0,"o":"m 74 264 b 253 515 74 393 153 475 b 108 738 168 556 108 631 b 418 992 108 893 247 992 b 728 738 589 992 728 893 b 583 515 728 631 668 556 b 763 264 683 475 763 393 b 418 -19 763 94 604 -19 b 74 264 232 -19 74 94 m 296 718 b 418 593 296 644 350 593 b 540 718 486 593 540 644 b 418 843 540 792 490 843 b 296 718 346 843 296 792 m 269 293 b 418 144 269 197 339 144 b 567 293 497 144 567 197 b 418 439 567 375 497 439 b 269 293 339 439 269 375 "},"9":{"ha":889,"x_min":0,"x_max":0,"o":"m 176 3 l 463 338 b 365 322 433 326 403 322 b 69 638 215 322 69 446 b 444 992 69 864 236 992 b 821 638 653 992 821 864 b 724 389 821 540 779 458 l 429 3 m 625 638 b 444 821 625 747 547 821 b 265 638 342 821 265 747 b 444 453 265 528 342 453 b 625 638 547 453 625 528 "}," ":{"ha":417,"x_min":0,"x_max":0,"o":""},"!":{"ha":458,"x_min":0,"x_max":0,"o":"m 340 972 l 301 308 l 158 308 l 118 972 m 115 76 b 229 183 115 138 164 183 b 343 76 294 183 343 138 b 229 -29 343 15 294 -29 b 115 76 164 -29 115 15 "},"'":{"ha":417,"x_min":0,"x_max":0,"o":"m 351 972 l 211 538 l 93 538 l 157 972 "},"\"":{"ha":696,"x_min":0,"x_max":0,"o":"m 351 972 l 211 538 l 93 538 l 157 972 m 632 972 l 492 538 l 374 538 l 436 972 "},"#":{"ha":900,"x_min":0,"x_max":0,"o":"m 49 394 l 188 394 l 233 585 l 104 585 l 104 728 l 268 728 l 328 972 l 486 972 l 426 728 l 590 728 l 650 972 l 808 972 l 749 728 l 851 728 l 851 585 l 714 585 l 668 394 l 796 394 l 796 251 l 633 251 l 572 0 l 414 0 l 475 251 l 311 251 l 250 0 l 92 0 l 153 251 l 49 251 m 514 389 l 563 590 l 388 590 l 339 389 "},"$":{"ha":846,"x_min":0,"x_max":0,"o":"m 619 690 b 440 832 578 771 524 832 b 315 729 353 832 315 790 b 538 567 315 640 419 611 b 785 269 660 522 785 440 b 510 -10 785 113 682 13 l 513 -156 l 363 -156 l 367 -8 b 56 239 225 18 108 117 l 201 338 b 443 150 265 217 335 150 b 575 265 533 150 575 192 b 367 435 575 357 479 392 b 110 732 269 471 110 547 b 367 981 110 854 214 957 l 363 1136 l 514 1136 l 510 981 b 772 781 649 957 728 868 l 619 690 "},"%":{"ha":1204,"x_min":0,"x_max":0,"o":"m 36 749 b 286 994 36 885 142 994 b 536 749 431 994 536 885 b 286 503 536 613 431 503 b 36 749 142 503 36 613 m 1049 972 l 339 0 l 157 0 l 867 972 m 188 749 b 286 644 188 692 226 644 b 385 749 346 644 385 692 b 286 853 385 806 346 853 b 188 749 226 853 188 806 m 669 224 b 919 471 669 360 775 471 b 1169 224 1064 471 1169 360 b 919 -22 1169 88 1064 -22 b 669 224 775 -22 669 88 m 821 224 b 919 119 821 167 860 119 b 1018 224 979 119 1018 167 b 919 328 1018 281 979 328 b 821 224 860 328 821 281 "},"&":{"ha":1011,"x_min":0,"x_max":0,"o":"m 700 89 b 386 -17 610 25 507 -17 b 56 258 208 -17 56 88 b 292 540 56 419 185 493 b 171 760 236 600 171 668 b 451 993 171 885 279 993 b 718 764 622 993 718 881 b 524 511 718 657 649 594 l 714 301 b 842 463 760 350 803 404 l 965 371 b 817 189 922 310 872 246 l 988 0 l 779 0 m 349 751 b 436 608 349 704 385 663 b 551 750 510 654 551 703 b 450 847 551 803 513 847 b 349 751 382 847 349 804 m 244 274 b 408 138 244 194 310 138 b 597 201 474 138 538 161 l 388 435 b 244 274 313 397 244 357 "},"(":{"ha":460,"x_min":0,"x_max":0,"o":"m 433 1083 b 286 403 336 875 286 639 b 433 -278 286 167 336 -69 l 269 -278 b 104 403 158 -69 104 167 b 269 1083 104 639 158 875 "},")":{"ha":460,"x_min":0,"x_max":0,"o":"m 26 -278 b 175 403 124 -69 175 167 b 26 1083 175 639 124 875 l 190 1083 b 357 403 301 875 357 639 b 190 -278 357 167 301 -69 "},"*":{"ha":822,"x_min":0,"x_max":0,"o":"m 163 460 l 321 633 l 92 681 l 142 836 l 356 739 l 329 972 l 493 972 l 467 739 l 681 836 l 731 681 l 501 633 l 660 460 l 526 364 l 411 568 l 296 364 "},"+":{"ha":911,"x_min":0,"x_max":0,"o":"m 90 454 l 363 454 l 363 733 l 549 733 l 549 454 l 821 454 l 821 281 l 549 281 l 549 1 l 363 1 l 363 281 l 90 281 "},",":{"ha":442,"x_min":0,"x_max":0,"o":"m 358 108 l 190 -239 l 57 -207 l 179 153 "},"-":{"ha":303,"x_min":0,"x_max":0,"o":"m 7 408 l 297 408 l 297 251 l 7 251 "},".":{"ha":438,"x_min":0,"x_max":0,"o":"m 106 82 b 219 194 106 143 154 194 b 333 82 285 194 333 143 b 219 -29 333 21 285 -29 b 106 82 154 -29 106 21 "},"/":{"ha":804,"x_min":0,"x_max":0,"o":"m 785 972 l 201 -208 l 21 -208 l 610 972 "},":":{"ha":438,"x_min":0,"x_max":0,"o":"m 106 604 b 219 717 106 665 154 717 b 333 604 285 717 333 665 b 219 492 333 543 285 492 b 106 604 154 492 106 543 m 106 82 b 219 194 106 143 154 194 b 333 82 285 194 333 143 b 219 -29 333 21 285 -29 b 106 82 154 -29 106 21 "},";":{"ha":518,"x_min":0,"x_max":0,"o":"m 168 599 b 282 711 168 660 217 711 b 396 599 347 711 396 660 b 282 486 396 538 347 486 b 168 599 217 486 168 538 m 379 108 l 213 -239 l 78 -207 l 200 153 "},"<":{"ha":889,"x_min":0,"x_max":0,"o":"m 799 183 l 799 6 l 90 306 l 90 422 l 799 721 l 799 544 l 354 369 "},"=":{"ha":864,"x_min":0,"x_max":0,"o":"m 82 561 l 783 561 l 783 403 l 82 403 m 82 299 l 783 299 l 783 140 l 82 140 "},">":{"ha":889,"x_min":0,"x_max":0,"o":"m 90 544 l 90 721 l 799 422 l 799 306 l 90 6 l 90 183 l 535 358 "},"?":{"ha":840,"x_min":0,"x_max":0,"o":"m 582 694 b 411 840 582 788 518 840 b 197 721 324 840 246 796 l 71 819 b 425 994 158 929 260 994 b 764 694 604 994 764 878 b 467 399 764 528 617 418 l 460 267 l 317 267 l 289 513 l 331 513 b 582 694 497 513 582 613 m 275 74 b 389 176 275 129 324 176 b 504 74 454 176 504 129 b 389 -29 504 18 454 -29 b 275 74 324 -29 275 18 "},"@":{"ha":1069,"x_min":0,"x_max":0,"o":"m 33 444 b 576 999 33 754 260 999 b 1036 542 874 999 1036 768 b 775 203 1036 296 897 203 b 631 319 701 203 643 251 b 456 217 589 251 525 217 b 269 436 347 217 269 299 b 507 736 269 629 394 736 b 643 651 567 736 614 701 l 651 722 l 796 722 l 753 419 b 750 382 751 410 750 393 b 792 324 750 349 758 324 b 900 542 828 324 900 372 b 576 875 900 721 792 875 b 169 444 328 875 169 693 b 519 94 169 231 294 94 b 782 160 617 94 697 114 l 833 49 b 507 -29 750 1 653 -29 b 33 444 197 -29 33 168 m 418 444 b 496 340 418 379 444 340 b 617 508 550 340 617 397 b 535 613 617 578 583 613 b 418 444 474 613 418 540 "}}}
